# xmcd
#
# Track frame offsets: 
#        150
#        11715
#        35416
#        51772
#        83794
#        102169
#        124547
#        141065
#        164131
#        182067
#        197739
#
# Disc length: 2983 seconds
#
# Revision: 0
# Processed by: cddbd v1.5.2PL0 Copyright (c) Steve Scherf et al.
# Submitted via: ExactAudioCopy v0.99pb5
#
DISCID=910ba50b
DTITLE=Joe Bonamassa and Beth Hart - Seesaw
DYEAR=2013
DGENRE=Blues
TTITLE0=Them There Eyes
TTITLE1=Close To My Fire
TTITLE2=Nutbush City Limits
TTITLE3=I Love You More Than You'll Ever Know
TTITLE4=Can't Let Go
TTITLE5=Miss Lady
TTITLE6=If I Tell You I Love You
TTITLE7=Rhymes
TTITLE8=A Sunday Kind Of Love
TTITLE9=See Saw
TTITLE10=Strange Fruit
EXTD=
EXTT0=
EXTT1=
EXTT2=
EXTT3=
EXTT4=
EXTT5=
EXTT6=
EXTT7=
EXTT8=
EXTT9=
EXTT10=
PLAYORDER=
